<?xml version="1.0" encoding="utf-8"?>
<!-- Generator: Adobe Illustrator 24.0.2, SVG Export Plug-In . SVG Version: 6.00 Build 0)  -->
<svg version="1.1" id="Capa_1" xmlns="http://www.w3.org/2000/svg" xmlns:xlink="http://www.w3.org/1999/xlink" x="0px" y="0px"
	 viewBox="0 0 360.66 145.23" style="enable-background:new 0 0 360.66 145.23;" xml:space="preserve">
<style type="text/css">
	.st0{fill:#D1D2D4;}
</style>
<g>
	<g>
		<g>
			<g>
				<path class="st0" d="M78.07,124.13c-6.02,0-10.81-2.81-11.06-2.95c-0.57-0.34-0.99-0.89-1.06-1.56
					c-0.06-0.66,0.14-1.26,0.62-1.71c0.26-0.32,2.58-3.48-1.96-10.4L47.73,87.39c-2.65,2.56-8.4,6.54-18.52,6.54
					c-0.23,0-0.47-0.04-0.69-0.12c-0.17-0.06-4.07-1.45-5.94-5.62c-1.33-2.97-1.3-6.51,0.1-10.52c-3.27-3.1-12.42-12.91-13-26.01
					c-0.41-9.25,3.53-18.09,11.72-26.28c8.37-8.37,17.42-12.62,26.9-12.62c0.12,0,0.24,0,0.37,0c13.64,0.16,23.57,9.03,25.7,11.1
					c1.32,0.43,4.26,1.7,5.57,4.61c0.92,2.05,0.81,4.37-0.34,6.92l5.19,13.73c0.17,0.46,0.18,0.96,0.02,1.42l-0.92,2.69l3.33,2.04
					c0.36,0.22,0.65,0.55,0.82,0.93l7.67,17.14c0.28,0.63,0.24,1.36-0.12,1.95c-0.36,0.59-0.99,0.97-1.67,1.01l-2.84,0.16v4.26
					c0,0.3-0.06,0.6-0.19,0.87l-1.53,3.35l3.8,4.14c0.72,0.57,2.98,2.59,4.28,6.28c1.33,3.77,1.85,10.09-3.25,18.73
					c-2.98,5.06-6.91,8.24-11.68,9.46C80.99,123.97,79.49,124.13,78.07,124.13z M70.99,118.45c3.95,1.64,13.37,4.08,19.58-6.47
					c8.01-13.58,0.01-19.57-0.07-19.63c-0.12-0.08-0.22-0.18-0.32-0.28l-4.86-5.3c-0.57-0.62-0.71-1.52-0.36-2.29l1.92-4.2V74.5
					c0-1.11,0.87-2.03,1.98-2.1l1.78-0.1l-6.16-13.77l-4.21-2.58c-0.84-0.51-1.21-1.54-0.89-2.47l1.21-3.56l-5.24-13.87
					c-0.21-0.57-0.17-1.2,0.11-1.73c0.89-1.67,1.11-3.05,0.65-4.08c-0.65-1.47-2.64-2.26-3.35-2.45c-0.38-0.1-0.74-0.3-1.01-0.59
					c-0.09-0.1-9.84-10.08-23.16-10.21c-0.09,0-0.18,0-0.27,0c-8.33,0-16.38,3.83-23.93,11.38c-7.32,7.32-10.86,15.1-10.5,23.12
					c0.62,13.8,12.51,23.89,12.63,23.99c0.71,0.59,0.95,1.57,0.59,2.42c-1.45,3.48-1.68,6.36-0.69,8.58
					c0.89,1.98,2.56,2.94,3.21,3.25c12-0.15,16.33-6.64,16.37-6.7c0.36-0.56,0.97-0.92,1.63-0.96c0.67-0.04,1.31,0.24,1.74,0.75
					l18.54,22.09c0.05,0.06,0.1,0.12,0.14,0.19C72.29,111.48,71.92,115.94,70.99,118.45z M66.59,117.89L66.59,117.89L66.59,117.89z"
					/>
			</g>
			<g>
				<path class="st0" d="M66.99,58.33c-0.55,0-1.1-0.21-1.51-0.64c-0.81-0.83-0.79-2.16,0.04-2.97c6.64-6.45,14.03-4.33,17.02-2.31
					c0.96,0.65,1.21,1.96,0.56,2.92c-0.65,0.96-1.95,1.21-2.91,0.57c-0.26-0.17-5.96-3.79-11.74,1.84
					C68.05,58.14,67.52,58.33,66.99,58.33z"/>
			</g>
			<g>
				<path class="st0" d="M25.16,79.19c-0.38,0-0.77-0.1-1.12-0.32c-0.98-0.62-1.28-1.92-0.66-2.9c0.06-0.09,5.76-9.1,14.54-19.92
					c11.84-14.59,23.36-25.38,34.24-32.09c0.99-0.61,2.28-0.3,2.89,0.69c0.61,0.99,0.3,2.28-0.69,2.89
					C49.34,42.96,27.16,77.86,26.94,78.21C26.54,78.85,25.86,79.19,25.16,79.19z"/>
			</g>
			<g>
				<path class="st0" d="M72.27,86.22c-0.63,0-1.22-0.28-1.63-0.77L55.61,67.09c-0.69-0.85-0.62-2.08,0.17-2.84
					c3.58-3.46,0.35-11.97,0.32-12.05c-0.26-0.67-0.17-1.42,0.25-2.01c9.86-13.62,19.95-16.77,20.37-16.9
					c1.11-0.33,2.28,0.3,2.62,1.41c0.33,1.11-0.29,2.28-1.4,2.61l0,0c-0.09,0.03-8.79,2.83-17.54,14.46
					c0.85,2.66,2.54,9.38-0.45,13.98L72.1,80.6c2.47-3.18,7.71-8.18,16.17-8.18c1.16,0,2.1,0.94,2.1,2.1c0,1.16-0.94,2.1-2.1,2.1
					c-9.55,0-13.96,8.13-14.14,8.47c-0.33,0.62-0.95,1.04-1.65,1.11C72.41,86.22,72.34,86.22,72.27,86.22z"/>
			</g>
			<g>
				<path class="st0" d="M46.71,84.46c-3.57,0-7.17-2.01-10.7-5.97c-5.29-5.95-4.1-12.67-0.2-16.23c3.09-2.82,8.18-3.57,11.94,0.44
					c0.79,0.85,0.75,2.18-0.1,2.97c-0.85,0.79-2.18,0.75-2.97-0.1c-2.13-2.27-4.52-1.6-6.04-0.21c-2.31,2.11-3.14,6.24,0.5,10.34
					c2.9,3.27,5.63,4.79,8.11,4.54c3.45-0.36,5.65-4.12,5.67-4.16c0.58-1,1.86-1.36,2.86-0.79c1.01,0.57,1.36,1.84,0.8,2.85
					c-0.13,0.23-3.24,5.66-8.86,6.27C47.39,84.44,47.05,84.46,46.71,84.46z"/>
			</g>
			<g>
				<path class="st0" d="M82.25,76.63c-0.22,0-0.45-0.04-0.67-0.11c-3.78-1.27-4.08-5.27-3.36-7.65c0.34-1.11,1.51-1.74,2.62-1.4
					c1.11,0.33,1.73,1.5,1.41,2.61c-0.1,0.35-0.52,2.06,0.67,2.46c1.1,0.37,1.69,1.56,1.32,2.66
					C83.94,76.07,83.12,76.63,82.25,76.63z"/>
			</g>
			<g>
				<path class="st0" d="M68.08,119.37"/>
			</g>
			<g>
				<path class="st0" d="M12.83,109.12c-0.21,0-0.42-0.03-0.62-0.09c-1.11-0.34-1.73-1.52-1.38-2.63
					c3.73-12.04,11.75-18.94,13.79-19.49c1.12-0.3,2.27,0.36,2.58,1.48c0.29,1.07-0.3,2.16-1.32,2.52
					c-1.01,0.57-7.78,6.26-11.03,16.73C14.56,108.54,13.73,109.12,12.83,109.12z M25.71,90.96C25.71,90.96,25.71,90.96,25.71,90.96
					C25.71,90.96,25.71,90.96,25.71,90.96z M25.91,90.89"/>
			</g>
			<g>
				<path class="st0" d="M60.41,142.62c-0.94,0-1.8-0.63-2.04-1.59c-4.76-18.86-13.78-30.89-20.51-37.66
					c-7.3-7.35-13.56-10.28-13.62-10.3c-1.05-0.48-1.52-1.73-1.03-2.78c0.48-1.05,1.73-1.52,2.78-1.04
					c0.28,0.13,6.88,3.19,14.7,11.01c7.15,7.16,16.74,19.86,21.76,39.75c0.28,1.13-0.4,2.27-1.52,2.55
					C60.75,142.6,60.58,142.62,60.41,142.62z"/>
			</g>
			<g>
				<path class="st0" d="M51.07,141.2c-0.92,0-1.76-0.6-2.02-1.53c-4.12-14.55-12.67-24.9-19.12-31.03
					c-7.03-6.68-13.18-9.94-13.24-9.97c-1.03-0.54-1.42-1.81-0.89-2.84c0.54-1.03,1.81-1.42,2.83-0.89
					c0.27,0.14,6.63,3.5,14.08,10.55c6.87,6.5,15.98,17.51,20.38,33.03c0.32,1.12-0.33,2.28-1.45,2.59
					C51.45,141.17,51.26,141.2,51.07,141.2z"/>
			</g>
			<g>
				<path class="st0" d="M66.89,109.12c-0.96,0-1.83-0.67-2.05-1.64c-3.25-14.55,5.5-24.36,5.88-24.77
					c0.78-0.86,2.11-0.92,2.97-0.14c0.86,0.78,0.92,2.11,0.14,2.97c-0.31,0.34-7.64,8.67-4.88,21.02c0.25,1.13-0.46,2.26-1.59,2.51
					C67.19,109.11,67.04,109.12,66.89,109.12z"/>
			</g>
			<g>
				<path class="st0" d="M71.04,40.66c-0.09,0-0.17-0.01-0.26-0.02c-1.15-0.14-1.97-1.19-1.82-2.35c0.5-3.96-3.35-5.13-3.79-5.25
					c-1.12-0.29-1.79-1.43-1.5-2.56c0.29-1.12,1.44-1.8,2.57-1.51c2.72,0.7,7.67,3.66,6.9,9.84C72.98,39.89,72.08,40.66,71.04,40.66
					z"/>
			</g>
			<g>
				<path class="st0" d="M63.84,46.14c-0.1,0-0.2-0.01-0.3-0.02c-1.15-0.16-1.95-1.23-1.78-2.38c0.53-3.74-2.78-4.71-3.46-4.87
					c-1.13-0.25-1.84-1.37-1.6-2.5c0.25-1.13,1.38-1.85,2.51-1.6c2.71,0.59,7.59,3.35,6.7,9.57C65.77,45.39,64.87,46.14,63.84,46.14
					z"/>
			</g>
			<g>
				<path class="st0" d="M58.04,53.52c-0.92,0-1.76-0.6-2.02-1.53c-1.36-4.79-3.81-6.2-4.39-6.47c-0.62-0.08-1.2-0.44-1.54-1.02
					c-0.41-0.7-0.38-1.59,0.08-2.26c0.37-0.54,1.13-1.05,2.15-0.88c1.47,0.24,5.72,2.42,7.74,9.49c0.32,1.12-0.33,2.28-1.45,2.6
					C58.42,53.49,58.23,53.52,58.04,53.52z"/>
			</g>
			<g>
				<path class="st0" d="M39.96,91.78c-0.32,0-0.65-0.08-0.96-0.23c-12.44-6.41-13.56-17.33-13.6-17.79
					c-0.1-1.16,0.75-2.18,1.9-2.28c1.15-0.1,2.17,0.74,2.28,1.9c0.04,0.39,1.04,9.13,11.34,14.44c1.03,0.53,1.44,1.8,0.9,2.83
					C41.46,91.36,40.73,91.78,39.96,91.78z"/>
			</g>
			<g>
				<path class="st0" d="M29.95,71.67c-0.57,0-1.14-0.23-1.55-0.69c-10.02-11-10.2-19.59-10.2-19.95c-0.01-1.16,0.92-2.11,2.09-2.12
					c0.01,0,0.01,0,0.02,0c1.15,0,2.08,0.92,2.1,2.07c0,0.14,0.32,7.52,9.1,17.17c0.78,0.86,0.72,2.19-0.14,2.97
					C30.96,71.49,30.45,71.67,29.95,71.67z"/>
			</g>
			<g>
				<path class="st0" d="M35.73,64.08c-0.62,0-1.23-0.27-1.65-0.79c-7.63-9.6-7.68-17.51-7.67-17.85c0.01-1.16,0.95-2.09,2.1-2.09
					c0,0,0.01,0,0.01,0c1.16,0.01,2.09,0.95,2.09,2.1c0,0.11,0.14,6.89,6.76,15.22c0.72,0.91,0.57,2.23-0.34,2.95
					C36.65,63.93,36.19,64.08,35.73,64.08z"/>
			</g>
			<g>
				<path class="st0" d="M41.91,56.4c-0.63,0-1.25-0.28-1.66-0.81c-5.57-7.15-5.44-14.32-5.43-14.63c0.03-1.16,0.99-2.07,2.16-2.04
					c1.16,0.03,2.07,0.99,2.04,2.15c0,0.11-0.03,6.06,4.55,11.94c0.71,0.92,0.55,2.24-0.37,2.95C42.81,56.26,42.36,56.4,41.91,56.4z
					"/>
			</g>
			<g>
				<path class="st0" d="M77.11,123.06c-0.1,0-0.2-0.01-0.3-0.02c-1.15-0.16-1.95-1.23-1.78-2.38c1.28-8.94-2.58-14.87-2.62-14.93
					c-0.64-0.96-0.39-2.27,0.57-2.91c0.96-0.65,2.26-0.4,2.91,0.56c0.2,0.29,4.82,7.26,3.3,17.88
					C79.04,122.31,78.14,123.06,77.11,123.06z"/>
			</g>
			<g>
				<path class="st0" d="M84.38,122.33c-0.13,0-0.25-0.01-0.38-0.03c-1.14-0.21-1.9-1.3-1.69-2.44c1.8-9.89-3.31-17.92-3.37-18
					c-0.63-0.97-0.35-2.27,0.62-2.91c0.97-0.63,2.27-0.35,2.91,0.62c0.25,0.38,6.08,9.53,3.97,21.04
					C86.26,121.62,85.37,122.33,84.38,122.33z"/>
			</g>
			<g>
				<path class="st0" d="M92.17,114.14c-1.08,0-1.99-0.82-2.09-1.92c-0.83-9.39-4.64-14.02-4.67-14.07
					c-0.75-0.89-0.63-2.22,0.26-2.96c0.89-0.75,2.21-0.63,2.96,0.26c0.19,0.23,4.69,5.71,5.64,16.4c0.1,1.16-0.75,2.18-1.91,2.28
					C92.3,114.14,92.24,114.14,92.17,114.14z"/>
			</g>
			<g>
				<path class="st0" d="M66.37,93.26c-0.61,0-1.21-0.26-1.62-0.76L53.14,78.45c-0.74-0.89-0.61-2.22,0.28-2.96
					c0.89-0.74,2.22-0.61,2.96,0.28l11.61,14.05c0.74,0.89,0.61,2.22-0.28,2.96C67.31,93.11,66.84,93.26,66.37,93.26z"/>
			</g>
			<g>
				<path class="st0" d="M87.02,144.06c-0.91,0-1.74-0.59-2.01-1.5c-3.61-12.2-17.94-21.32-18.08-21.41
					c-0.98-0.62-1.28-1.91-0.66-2.9c0.62-0.98,1.91-1.28,2.9-0.66c0.64,0.4,15.81,10.04,19.87,23.78c0.33,1.11-0.31,2.28-1.42,2.61
					C87.42,144.04,87.22,144.06,87.02,144.06z"/>
			</g>
		</g>
		<g>
			<path class="st0" d="M128.46,118.65H89.6c-0.59,0-1.07-0.48-1.07-1.07c0-0.59,0.48-1.07,1.07-1.07h38.86
				c0.59,0,1.07,0.48,1.07,1.07C129.53,118.17,129.05,118.65,128.46,118.65z"/>
		</g>
		<g>
			<path class="st0" d="M108.17,135.38H83.85c-0.59,0-1.07-0.48-1.07-1.07c0-0.59,0.48-1.07,1.07-1.07h24.32
				c0.59,0,1.07,0.48,1.07,1.07C109.25,134.9,108.77,135.38,108.17,135.38z"/>
		</g>
		<g>
			<path class="st0" d="M137.59,101.92h-39c-0.59,0-1.07-0.48-1.07-1.07c0-0.59,0.48-1.07,1.07-1.07h39c0.59,0,1.07,0.48,1.07,1.07
				C138.66,101.44,138.18,101.92,137.59,101.92z"/>
		</g>
		<g>
			<path class="st0" d="M140.07,51.74H82.75c-0.59,0-1.07-0.48-1.07-1.07c0-0.59,0.48-1.07,1.07-1.07h57.32
				c0.59,0,1.07,0.48,1.07,1.07C141.14,51.26,140.66,51.74,140.07,51.74z"/>
		</g>
		<g>
			<path class="st0" d="M132.01,35.01H78.51c-0.59,0-1.07-0.48-1.07-1.07c0-0.59,0.48-1.07,1.07-1.07h53.51
				c0.59,0,1.07,0.48,1.07,1.07C133.09,34.53,132.61,35.01,132.01,35.01z"/>
		</g>
		<g>
			<path class="st0" d="M114.87,18.28H62.39c-0.59,0-1.07-0.48-1.07-1.07c0-0.59,0.48-1.07,1.07-1.07h52.48
				c0.59,0,1.07,0.48,1.07,1.07C115.94,17.8,115.46,18.28,114.87,18.28z"/>
		</g>
		<g>
			<path class="st0" d="M119.99,127.02H78.51c-0.59,0-1.07-0.48-1.07-1.07s0.48-1.07,1.07-1.07h41.48c0.59,0,1.07,0.48,1.07,1.07
				S120.58,127.02,119.99,127.02z"/>
		</g>
		<g>
			<path class="st0" d="M133.87,110.29H96.25c-0.59,0-1.07-0.48-1.07-1.07s0.48-1.07,1.07-1.07h37.62c0.59,0,1.07,0.48,1.07,1.07
				S134.46,110.29,133.87,110.29z"/>
		</g>
		<g>
			<path class="st0" d="M137.01,43.38H79.98c-0.59,0-1.07-0.48-1.07-1.07c0-0.59,0.48-1.07,1.07-1.07h57.03
				c0.59,0,1.07,0.48,1.07,1.07C138.08,42.9,137.6,43.38,137.01,43.38z"/>
		</g>
		<g>
			<path class="st0" d="M123.65,26.65H75.78c-0.59,0-1.07-0.48-1.07-1.07c0-0.59,0.48-1.07,1.07-1.07h47.88
				c0.59,0,1.07,0.48,1.07,1.07C124.73,26.17,124.25,26.65,123.65,26.65z"/>
		</g>
		<g>
			<path class="st0" d="M23.72,85.2H4.71c-0.59,0-1.07-0.48-1.07-1.07c0-0.59,0.48-1.07,1.07-1.07h19.01c0.59,0,1.07,0.48,1.07,1.07
				C24.79,84.72,24.31,85.2,23.72,85.2z"/>
		</g>
		<g>
			<path class="st0" d="M16.41,68.47H3.98c-0.59,0-1.07-0.48-1.07-1.07s0.48-1.07,1.07-1.07h12.43c0.59,0,1.07,0.48,1.07,1.07
				S17,68.47,16.41,68.47z"/>
		</g>
		<g>
			<path class="st0" d="M20.29,93.56H7.24c-0.59,0-1.07-0.48-1.07-1.07c0-0.59,0.48-1.07,1.07-1.07h13.05
				c0.59,0,1.07,0.48,1.07,1.07C21.37,93.08,20.89,93.56,20.29,93.56z"/>
		</g>
		<g>
			<path class="st0" d="M23.72,76.83H3.98c-0.59,0-1.07-0.48-1.07-1.07s0.48-1.07,1.07-1.07h19.74c0.59,0,1.07,0.48,1.07,1.07
				S24.31,76.83,23.72,76.83z"/>
		</g>
		<g>
			<path class="st0" d="M12.89,60.1H4.71c-0.59,0-1.07-0.48-1.07-1.07c0-0.59,0.48-1.07,1.07-1.07h8.19c0.59,0,1.07,0.48,1.07,1.07
				C13.97,59.62,13.49,60.1,12.89,60.1z"/>
		</g>
		<g>
			<path class="st0" d="M143.38,85.2H88.27c-0.59,0-1.07-0.48-1.07-1.07c0-0.59,0.48-1.07,1.07-1.07h55.11
				c0.59,0,1.07,0.48,1.07,1.07C144.45,84.72,143.97,85.2,143.38,85.2z"/>
		</g>
		<g>
			<path class="st0" d="M144.69,68.47H91.72c-0.59,0-1.07-0.48-1.07-1.07s0.48-1.07,1.07-1.07h52.97c0.59,0,1.07,0.48,1.07,1.07
				S145.28,68.47,144.69,68.47z"/>
		</g>
		<g>
			<path class="st0" d="M141.85,93.56h-47.9c-0.59,0-1.07-0.48-1.07-1.07c0-0.59,0.48-1.07,1.07-1.07h47.9
				c0.59,0,1.07,0.48,1.07,1.07C142.92,93.08,142.44,93.56,141.85,93.56z"/>
		</g>
		<g>
			<path class="st0" d="M144.13,76.83H89.6c-0.59,0-1.07-0.48-1.07-1.07s0.48-1.07,1.07-1.07h54.53c0.59,0,1.07,0.48,1.07,1.07
				S144.73,76.83,144.13,76.83z"/>
		</g>
		<g>
			<path class="st0" d="M143.38,60.1H87.86c-0.59,0-1.07-0.48-1.07-1.07c0-0.59,0.48-1.07,1.07-1.07h55.51
				c0.59,0,1.07,0.48,1.07,1.07C144.45,59.62,143.97,60.1,143.38,60.1z"/>
		</g>
		<g>
			<path class="st0" d="M101.09,9.92H44.17c-0.59,0-1.07-0.48-1.07-1.07s0.48-1.07,1.07-1.07h56.93c0.59,0,1.07,0.48,1.07,1.07
				S101.69,9.92,101.09,9.92z"/>
		</g>
		<g>
			<path class="st0" d="M74.18,145.23c-19.4,0-37.63-7.55-51.35-21.27C9.12,110.24,1.56,92.01,1.56,72.61
				c0-19.4,7.55-37.63,21.27-51.35C36.55,7.55,54.78,0,74.18,0s37.63,7.55,51.35,21.27c13.71,13.71,21.27,31.95,21.27,51.35
				c0,19.4-7.55,37.63-21.27,51.35C111.81,137.67,93.57,145.23,74.18,145.23z M74.18,4.2C36.46,4.2,5.77,34.89,5.77,72.61
				s30.69,68.41,68.41,68.41s68.41-30.69,68.41-68.41S111.9,4.2,74.18,4.2z"/>
		</g>
	</g>
	<g>
		<g>
			<path class="st0" d="M183.97,114.69c-0.9-0.95-2.48-1.37-3.75-1.37c-1.6,0-2.89,0.67-2.89,1.78c0,1.48,1.41,1.76,3.5,1.94
				c3.2,0.28,6.23,1.5,6.23,5.26c0,3.61-3.33,5.19-6.83,5.21c-2.8,0.02-5.72-1.06-7.08-3.33l2.15-2.25c1.25,1.6,3.31,2.29,4.95,2.29
				c1.92,0,3.24-0.76,3.24-1.92c0.02-1.37-1.06-1.99-3.26-2.18c-3.43-0.32-6.48-1.18-6.44-5c0.02-3.22,3.08-4.93,6.41-4.93
				c2.5,0,4.38,0.56,6.04,2.5L183.97,114.69z"/>
			<path class="st0" d="M209.05,126.99H196.7c0-5.39,0-10.81,0-16.21h12.02v3.31h-8.47v3.13h7.99v3.17h-7.99v3.26h8.8V126.99z"/>
			<path class="st0" d="M232.87,125.02c-1.67,1.64-3.82,2.38-6.23,2.38c-6.18,0-8.64-3.98-8.66-8.4c-0.02-4.19,2.71-8.59,8.66-8.59
				c2.22,0,4.28,0.86,5.95,2.5l-2.27,2.25c-0.97-0.95-2.38-1.34-3.68-1.34c-3.68,0-5.12,2.85-5.09,5.21
				c0.02,2.36,1.3,5.05,5.09,5.05c1.3,0,3.01-0.58,3.98-1.55L232.87,125.02z"/>
			<path class="st0" d="M256.75,110.8v9.05c0,4.82-2.69,7.39-6.95,7.52c-4.24,0.14-7.83-2.29-7.83-7.52v-9.05h3.59v9.05
				c0,2.89,1.62,4.4,4.26,4.28c2.45-0.16,3.33-1.85,3.33-4.28v-9.05H256.75z"/>
			<path class="st0" d="M281.68,126.99h-4.01l-4.14-5.33h-2.62v5.33h-3.61v-16.21c2.64,0,5.07,0,7.69,0c3.91,0,6,2.62,6,5.46
				c-0.02,2.11-0.65,3.98-3.75,5.09l4.45,5.37V126.99z M270.92,113.88v4.72h4.12c1.67,0,2.38-1.25,2.38-2.27
				c-0.02-1.11-0.74-2.45-2.43-2.45H270.92z"/>
			<path class="st0" d="M291.27,126.99v-16.21h3.59v16.21H291.27z"/>
			<path class="st0" d="M309.17,114h-4.93v-3.22c4.72,0,8.71,0,13.45,0V114h-4.93v12.99h-3.59V114z"/>
			<path class="st0" d="M333.41,117.22l4.1-6.44h4.14v0.19l-6.48,9.59v6.44h-3.61v-6.44l-6.21-9.59v-0.19h4.17L333.41,117.22z"/>
		</g>
		<g>
			<path class="st0" d="M169.25,37.04V26.14h31.52l1.65,10.94l-14.77,65.66h-12.51l14.76-65.71H169.25z"/>
		</g>
		<path class="st0" d="M259.9,85.16l8.84-59.02h12.63l-12.86,76.6h-17.14l-6.49-39.54l-6.45,39.54h-17.14l-12.9-76.6h12.59
			l8.84,59.02l8.84-59.02h12.41L259.9,85.16z"/>
		<path class="st0" d="M318.84,102.74H306.2l-2.43-16.26h-12.77l-2.47,16.26h-12.59l12.9-76.6h17.14L318.84,102.74z M302.14,75.58
			l-4.77-31.9l-4.77,31.9H302.14z"/>
		<path class="st0" d="M326.9,26.14l8.53,29.86l8.53-29.86h13.25l-15.15,43.42l-0.35,0.97v32.2h-12.5v-32.2l-0.4-0.97l-15.15-43.42
			H326.9z"/>
	</g>
</g>
</svg>
